<svg id="Layer_1" data-name="Layer 1" xmlns="http://www.w3.org/2000/svg" viewBox="0 0 184.25 184.25"><defs><style>.cls-1{fill:#fff;}</style></defs><title>beard icon final with outline</title><circle cx="92.13" cy="92.13" r="88.22"/><path class="cls-1" d="M284,314.88A92.13,92.13,0,1,0,376.09,407,92.13,92.13,0,0,0,284,314.88ZM309.39,491.5a88.18,88.18,0,1,1,59-58.94A88.15,88.15,0,0,1,309.39,491.5Z" transform="translate(-191.84 -314.88)"/><path class="cls-1" d="M328.73,453.36c-3,2.65-6.08,6.79-19.28,7H258.72c-13.4-.13-16.46-4.3-19.52-7-2.23-2-21.3-25.15-31.86-38.05a77.08,77.08,0,0,0,153.26,0C350,428.21,331,451.4,328.73,453.36Z" transform="translate(-191.84 -314.88)"/><path class="cls-1" d="M234,376.93a13.2,13.2,0,0,1,13.2-13.2l33.33-2,.91,10.87-27.35,2A11.37,11.37,0,0,0,242.74,386v24.58a11.32,11.32,0,0,0,2.81,7.45c6.62-1.13,30.22-6.22,30.22-21.17h16.59c0,14.95,23.6,20,30.23,21.17a11.31,11.31,0,0,0,2.8-7.45V386A11.37,11.37,0,0,0,314,374.59l-27.34-2,.9-10.87,33.33,2a13.2,13.2,0,0,1,13.2,13.2l-1.7,12.79,23.3-10.82a77.35,77.35,0,0,0-55-47.12,49,49,0,0,1,1.51,10.78c-.16,4.18-4.86,8.57-15,9l-.43-2.94c4.78-.38,7.25-4.36,7.31-6.18a65.24,65.24,0,0,0-1.5-12,79.73,79.73,0,0,0-8.65-.49,77.46,77.46,0,0,0-8.66.49,66.14,66.14,0,0,0-1.5,12c.07,1.82,2.54,5.8,7.31,6.18l-.43,2.94c-10.13-.39-14.83-4.78-15-9a49.11,49.11,0,0,1,1.52-10.78,77.35,77.35,0,0,0-55,47l23.41,10.49Zm79.31,5.9a2.33,2.33,0,1,1,0,4.64h-58.7a2.33,2.33,0,1,1,0-4.64Z" transform="translate(-191.84 -314.88)"/></svg>